Coordinates
version=1
nRows=22
nColumns=24
inDegrees=yes

Units are S.I. units (second, meters, Newtons, ...)
Angles are in degrees.

endheader
time	pelvis_tilt	pelvis_list	pelvis_rotation	pelvis_tx	pelvis_ty	pelvis_tz	hip_flexion_r	hip_adduction_r	hip_rotation_r	knee_angle_r	ankle_angle_r	subtalar_angle_r	mtp_angle_r	hip_flexion_l	hip_adduction_l	hip_rotation_l	knee_angle_l	ankle_angle_l	subtalar_angle_l	mtp_angle_l	lumbar_extension	lumbar_bending	lumbar_rotation
      3.12500000	     -5.77734251	    -16.62321140	     10.82453724	     -2.52415252	     -0.05932439	      0.49461598	     32.59537210	     16.99368791	     -3.73915332	    -30.29645310	     -0.10993022	      1.40258571	      4.96070740	     14.02635264	    -19.93494911	      5.59263421	    -65.37466888	    -33.46163945	     17.74552706	     23.10047201	      8.43964777	     15.28981961	    -14.33390735
      3.13000000	     -5.74478343	    -16.82218738	     10.69864633	     -2.51697055	     -0.05883447	      0.49494107	     32.04170926	     17.43318684	     -3.63582735	    -30.18194461	      0.45318947	      1.38387955	      4.95573233	     15.09195912	    -19.86374218	      6.00141198	    -66.63899223	    -33.22811434	     16.45601035	     23.37850527	      8.38219235	     15.56120755	    -13.96458337
      3.13500000	     -5.64986518	    -16.99668210	     10.51120464	     -2.50971251	     -0.05819301	      0.49532896	     31.35429549	     17.91715339	     -3.36253032	    -29.99163412	      0.97368694	      1.35485528	      5.03143849	     16.02269345	    -19.78783791	      6.34996595	    -67.80287552	    -32.73365830	     15.48433955	     23.77347256	      8.24312608	     15.82980504	    -13.52211496
      3.14000000	     -5.60622948	    -17.09094857	     10.33951686	     -2.50257880	     -0.05749007	      0.49566650	     30.70267264	     18.29271114	     -3.11120432	    -29.80236451	      1.42000403	      1.23020912	      4.98373965	     17.00842252	    -19.57963057	      6.67270019	    -68.88358328	    -32.29578508	     14.24719007	     24.16914872	      8.13886444	     16.00125843	    -13.08674452
      3.14500000	     -5.51401358	    -17.16075809	     10.16433747	     -2.49533835	     -0.05665525	      0.49602161	     29.93604394	     18.66883786	     -2.75601686	    -29.53651420	      1.88413127	      1.17960672	      5.05390536	     17.89968296	    -19.35262007	      7.00128641	    -69.86593042	    -31.57157842	     13.42108203	     24.64696582	      8.00111727	     16.14296929	    -12.65416771
      3.15000000	     -5.46862988	    -17.18228789	      9.91533795	     -2.48821365	     -0.05581006	      0.49646597	     29.21018891	     19.02139816	     -2.33724992	    -29.29589967	      2.25849522	      1.00381168	      4.96521333	     18.81070085	    -19.08145838	      7.20704775	    -70.76026650	    -30.93578318	     12.40728964	     25.16729544	      7.85745166	     16.23784521	    -12.13043526
      3.15500000	     -5.39033238	    -17.17771589	      9.73046306	     -2.48104406	     -0.05485905	      0.49681191	     28.40774578	     19.31825739	     -1.91140110	    -28.99128061	      2.66036756	      0.93077150	      4.99855609	     19.68739165	    -18.75588549	      7.47801167	    -71.56895316	    -30.10034710	     11.67431059	     25.67535473	      7.71425478	     16.29216035	    -11.72247364
      3.16000000	     -5.33559552	    -17.12955248	      9.48422741	     -2.47388695	     -0.05386484	      0.49724365	     27.60007737	     19.59894800	     -1.38567729	    -28.68127500	      3.00110885	      0.79095244	      4.96353284	     20.54138847	    -18.40043339	      7.65559802	    -72.27587425	    -29.24164097	     10.97544671	     26.20757799	      7.57228817	     16.30101854	    -11.23136094
      3.16500000	     -5.27848257	    -16.98170564	      9.16520404	     -2.46677023	     -0.05275625	      0.49780367	     26.75101264	     19.83022024	     -0.71297004	    -28.38496589	      3.25421061	      0.46551649	      4.74783655	     21.30838973	    -17.95576560	      7.73684630	    -72.85375419	    -28.36316093	     10.38987729	     26.81424571	      7.38047205	     16.20975123	    -10.59993971
      3.17000000	     -5.22621835	    -16.83842104	      8.88059763	     -2.45969317	     -0.05166437	      0.49830523	     25.90457015	     20.02863857	     -0.07309391	    -28.07135668	      3.53877034	      0.24269780	      4.60930648	     22.10453491	    -17.50591593	      7.83437761	    -73.36934132	    -27.43126170	      9.89472220	     27.35967942	      7.20692863	     16.11202122	    -10.06396227
      3.17500000	     -5.18544167	    -16.65355719	      8.58355657	     -2.45261562	     -0.05052492	      0.49881783	     25.04473763	     20.18225662	      0.61411388	    -27.74267979	      3.78696619	     -0.01629103	      4.43646600	     22.88147688	    -17.01159341	      7.89871728	    -73.78492427	    -26.48425920	      9.48184190	     27.87046597	      7.04627739	     15.96477569	     -9.51692137
      3.18000000	     -5.15570897	    -16.43597612	      8.26597030	     -2.44556883	     -0.04937512	      0.49935710	     24.18345565	     20.30056531	      1.34065593	    -27.41431566	      4.01462276	     -0.30020245	      4.23856786	     23.64482575	    -16.49145439	      7.92116750	    -74.11053645	    -25.53077620	      9.14309707	     28.34996233	      6.88946992	     15.78244067	     -8.95189947
      3.18500000	     -5.13552646	    -16.19445486	      7.93152494	     -2.43854611	     -0.04821407	      0.49991619	     23.31840880	     20.39017383	      2.10770487	    -27.07882626	      4.21818600	     -0.60369143	      4.00470256	     24.39675783	    -15.95614568	      7.90758001	    -74.34668140	    -24.58754509	      8.87193813	     28.79231246	      6.73799800	     15.57089459	     -8.37787277
      3.19000000	     -5.10347559	    -15.95720066	      7.59093518	     -2.43154427	     -0.04705042	      0.50049638	     22.42785836	     20.48593491	      2.93757158	    -26.72619458	      4.39799466	     -0.94329292	      3.67582575	     25.12766420	    -15.44255636	      7.87382268	    -74.50226976	    -23.65859078	      8.66137035	     29.19054442	      6.57867895	     15.36803783	     -7.79045328
      3.19500000	     -5.09758150	    -15.67584252	      7.22903635	     -2.42455244	     -0.04590371	      0.50109950	     21.55803758	     20.52300015	      3.76457067	    -26.38675701	      4.58199606	     -1.28864088	      3.31274243	     25.85203760	    -14.89659495	      7.78677872	    -74.56453282	    -22.73422279	      8.49553860	     29.54063946	      6.44448605	     15.11064418	     -7.22404051
      3.20000000	     -5.14296409	    -15.35492330	      6.83356794	     -2.41767683	     -0.04482934	      0.50172840	     20.76014218	     20.49449587	      4.56056335	    -26.08147459	      4.77714575	     -1.56981693	      3.07143716	     26.61579184	    -14.31351683	      7.66421880	    -74.55242842	    -21.87545292	      8.36798256	     29.86154507	      6.33732521	     14.80544603	     -6.59066599
      3.20500000	     -5.17391182	    -15.04284013	      6.43080280	     -2.41078099	     -0.04376567	      0.50238245	     19.92975555	     20.47740685	      5.42025804	    -25.74973348	      4.94197336	     -1.91393458	      2.75011063	     27.34834614	    -13.76968652	      7.51403910	    -74.45759817	    -21.03419404	      8.27794743	     30.13617095	      6.23149827	     14.51662629	     -5.96871387
      3.21000000	     -5.20203163	    -14.74381216	      6.02489087	     -2.40395948	     -0.04274498	      0.50302682	     19.10030808	     20.46369041	      6.32379245	    -25.41695245	      5.09332744	     -2.25881120	      2.36251729	     28.07871871	    -13.25416957	      7.35838351	    -74.29676618	    -20.22733332	      8.21740293	     30.34919247	      6.11420411	     14.24587602	     -5.34195921
      3.21500000	     -5.23941572	    -14.44227967	      5.61192434	     -2.39705466	     -0.04174116	      0.50368552	     18.26113649	     20.43283784	      7.21980527	    -25.05828704	      5.25307846	     -2.61041431	      1.88719451	     28.78921810	    -12.76553229	      7.16807162	    -74.04484965	    -19.43878247	      8.17560908	     30.49114829	      6.03556935	     13.96726348	     -4.75206256
      3.22000000	     -5.30452989	    -14.12273329	      5.18276721	     -2.39024518	     -0.04082463	      0.50435308	     17.47392643	     20.36260344	      8.08558721	    -24.73176727	      5.43699311	     -2.91690811	      1.45494770	     29.51966267	    -12.27552823	      6.95114115	    -73.72566957	    -18.70018576	      8.14093302	     30.59856205	      5.96877752	     13.67003914	     -4.12859085
      3.22500000	     -5.36717697	    -13.80202736	      4.74989763	     -2.38345794	     -0.03995936	      0.50503482	     16.68827428	     20.28098881	      8.95340233	    -24.40868342	      5.62072567	     -3.24890100	      0.95210115	     30.23174151	    -11.81217580	      6.71088864	    -73.33332888	    -17.97650376	      8.11338190	     30.63919446	      5.90002681	     13.37145972	     -3.51798768
      3.23000000	     -5.49772364	    -13.46129851	      4.27510067	     -2.37674831	     -0.03920166	      0.50570249	     16.00478629	     20.14179337	      9.73183125	    -24.11903467	      5.81678173	     -3.42639830	      0.72577368	     30.99342999	    -11.35001864	      6.43239996	    -72.85887155	    -17.34419793	      8.06541041	     30.73140942	      5.89030959	     13.05979132	     -2.83450750
